<svg xmlns="http://www.w3.org/2000/svg" viewBox="0 0 256 256" width="25" height="25"><path d="M80 16c-35.344 0-64 28.656-64 64v96c0 35.344 28.656 64 64 64h96c35.344 0 64-28.656 64-64V80c0-35.344-28.656-64-64-64zm0 16h96c26.512 0 48 21.488 48 48v96c0 26.512-21.488 48-48 48H80c-26.512 0-48-21.488-48-48V80c0-26.512 21.488-48 48-48zm0 16c-17.68 0-32 14.32-32 32v96c0 17.68 14.32 32 32 32h96c17.68 0 32-14.32 32-32V80c0-17.68-14.32-32-32-32zm104 16c4.416 0 8 3.584 8 8s-3.584 8-8 8-8-3.584-8-8 3.584-8 8-8zm-56 16c26.512 0 48 21.488 48 48s-21.488 48-48 48-48-21.488-48-48 21.488-48 48-48zm0 16c-17.673 0-32 14.327-32 32 0 17.673 14.327 32 32 32 17.673 0 32-14.327 32-32 0-17.673-14.327-32-32-32z" fill="#fff" font-family="none" font-weight="none" font-size="none" text-anchor="none"/></svg>